<?xml version="1.0" encoding="UTF-8"?>
<svg version="1.1" xmlns="http://www.w3.org/2000/svg" width="835" height="956">
<path d="M0 0 C2.44677734 1.12646484 2.44677734 1.12646484 4.8359375 2.7109375 C6.17205078 3.58105469 6.17205078 3.58105469 7.53515625 4.46875 C8.47230469 5.0978125 9.40945313 5.726875 10.375 6.375 C12.36161078 7.67504227 14.3485919 8.97451881 16.3359375 10.2734375 C17.3062793 10.9137793 18.27662109 11.55412109 19.27636719 12.21386719 C22.81544992 14.5347644 26.39998101 16.77533289 30 19 C39.14737686 24.69008176 48.22416078 30.49134855 57.30712891 36.28344727 C61.03041486 38.65683109 64.75576547 41.02696512 68.48120117 43.39697266 C70.98828089 44.99254166 73.49421171 46.58990387 76 48.1875 C88.59246384 56.19765683 101.22106279 64.14983579 113.875 72.0625 C114.90326904 72.70574219 115.93153809 73.34898438 116.9909668 74.01171875 C117.96074463 74.61757812 118.93052246 75.2234375 119.9296875 75.84765625 C120.78804199 76.38398682 121.64639648 76.92031738 122.53076172 77.47290039 C124.25903377 78.54174968 126.02577832 79.54969556 127.81689453 80.50952148 C128.53731934 81.00137939 129.25774414 81.4932373 130 82 C130 82.99 130 83.98 130 85 C129.36835937 85.3403125 128.73671875 85.680625 128.0859375 86.03125 C115.28587413 92.96615465 102.72855304 100.31232934 90.15942383 107.65429688 C83.19416465 111.72264513 76.21879024 115.77288712 69.23486328 119.80908203 C62.70839398 123.58364188 56.19753752 127.38468663 49.6875 131.1875 C40.58173206 136.50478885 31.4571143 141.78409812 22.27783203 146.97363281 C15.88829683 150.58610331 9.54756719 154.24835066 3.3125 158.125 C-1.32991346 161.00630583 -6.0270749 163.68656322 -10.83984375 166.26953125 C-23.52878708 173.21786487 -35.93231348 180.71026594 -48.42407227 188.00439453 C-56.49411282 192.71316648 -64.58861596 197.37530486 -72.72216797 201.97363281 C-79.11170317 205.58610331 -85.45243281 209.24835066 -91.6875 213.125 C-96.28430858 215.97667287 -100.92944978 218.63970495 -105.6953125 221.1953125 C-112.91697802 225.13905892 -120.02771592 229.28402911 -127.16552734 233.37695312 C-130.00005211 235.00002984 -132.83740538 236.61804362 -135.67578125 238.234375 C-137.06144287 239.02400635 -137.06144287 239.02400635 -138.47509766 239.82958984 C-140.22302712 240.82548485 -141.97136822 241.82065787 -143.72021484 242.81494141 C-148.7580194 245.68808787 -153.7448684 248.63529539 -158.71166992 251.62939453 C-161.63686596 253.38145369 -164.59477355 255.07113598 -167.5625 256.75 C-172.69241789 259.66546337 -177.79279391 262.62718151 -182.875 265.625 C-197.72935071 274.38068983 -212.59329601 283.11380906 -227.625 291.5625 C-236.96122016 296.81199079 -246.19642728 302.2160555 -255.40625 307.68359375 C-270.07609164 316.39187245 -284.83226315 324.94272498 -299.69799805 333.31201172 C-308.07533008 338.03088406 -316.40000576 342.83663076 -324.71142578 347.67041016 C-327.75952182 349.44125836 -330.81168017 351.20504035 -333.86376953 352.96899414 C-337.91123999 355.30911075 -341.95582936 357.65418642 -346 360 C-346.97759277 360.56686523 -347.95518555 361.13373047 -348.96240234 361.71777344 C-359.48046977 367.82099223 -369.9754195 373.93470547 -380.30078125 380.359375 C-383.68953581 382.41911004 -387.1558486 384.29870846 -390.65234375 386.16796875 C-396.22535333 389.21784214 -401.71654587 392.41302106 -407.21289062 395.59863281 C-408.50163086 396.34064941 -408.50163086 396.34064941 -409.81640625 397.09765625 C-410.57381104 397.53601807 -411.33121582 397.97437988 -412.11157227 398.42602539 C-416.34637102 400.73367035 -420.6864172 402.8432086 -425 405 C-425 350.88 -425 296.76 -425 241 C-422.03 239.35 -419.06 237.7 -416 236 C-414.08142061 234.89452113 -412.16674442 233.7822121 -410.2578125 232.66015625 C-409.25363281 232.07169922 -408.24945313 231.48324219 -407.21484375 230.87695312 C-405.16246278 229.67173067 -403.11037713 228.46600515 -401.05859375 227.25976562 C-395.3062446 223.89011167 -389.51611789 220.61755299 -383.65283203 217.44506836 C-379.3594654 215.10635705 -375.11692229 212.68043676 -370.875 210.25 C-369.96685547 209.73050781 -369.05871094 209.21101562 -368.12304688 208.67578125 C-361.87134744 205.09211612 -355.65273737 201.45573381 -349.45019531 197.7878418 C-342.98401036 193.97194386 -336.46504826 190.25087327 -329.94189453 186.53344727 C-324.07429754 183.1885637 -318.21845686 179.82437923 -312.375 176.4375 C-311.59769531 175.98697266 -310.82039063 175.53644531 -310.01953125 175.07226562 C-307.67941637 173.71531049 -305.33963974 172.35777419 -303 171 C-290.46890682 163.72777145 -277.91097332 156.5047206 -265.32568359 149.32666016 C-261.117842 146.92634405 -256.91246568 144.52171822 -252.70703125 142.1171875 C-249.83112076 140.473581 -246.95285147 138.83414619 -244.07421875 137.1953125 C-235.16774411 132.1208453 -226.28363523 127.01571696 -217.46264648 121.79394531 C-211.75972134 118.42608143 -206.00850548 115.1467153 -200.25 111.875 C-193.34469201 107.95059724 -186.54483349 103.91280968 -179.8046875 99.7109375 C-176.38179358 97.62287687 -172.88055388 95.7220495 -169.34765625 93.828125 C-164.67715476 91.2776061 -160.05808107 88.63964013 -155.4375 86 C-154.56287109 85.50145508 -153.68824219 85.00291016 -152.78710938 84.48925781 C-147.58451743 81.51328155 -142.42601179 78.47465088 -137.30273438 75.36401367 C-134.91936459 73.952236 -132.50273377 72.62317887 -130.0625 71.3125 C-125.02708992 68.5935198 -120.07230733 65.7498753 -115.125 62.875 C-108.3057817 58.91243544 -101.47467028 54.97221667 -94.625 51.0625 C-93.75472168 50.56556641 -92.88444336 50.06863281 -91.98779297 49.55664062 C-87.52714212 47.01051327 -83.06481999 44.46733601 -78.6015625 41.92578125 C-69.85247924 36.94006117 -61.12651154 31.92259016 -52.4609375 26.79296875 C-46.75861811 23.42537258 -41.00796863 20.14632878 -35.25 16.875 C-28.30430591 12.9285401 -21.44239449 8.89212713 -14.69140625 4.62109375 C-9.57849197 1.54147194 -6.0762119 -0.48748841 0 0 Z " fill="#0963A1" transform="translate(425,0)"/>
<path d="M0 0 C3.43891179 1.37556472 6.14056299 2.56208143 9.23046875 4.43359375 C10.02404785 4.9119165 10.81762695 5.39023926 11.63525391 5.88305664 C12.47749512 6.39602295 13.31973633 6.90898926 14.1875 7.4375 C15.51273682 8.23885376 15.51273682 8.23885376 16.86474609 9.05639648 C19.57924401 10.69979048 22.29018345 12.34890016 25 14 C25.7926123 14.48243164 26.58522461 14.96486328 27.40185547 15.46191406 C31.86368682 18.17930589 36.31962851 20.90620334 40.7734375 23.63671875 C43.03464963 25.0212153 45.29820249 26.40180596 47.5625 27.78125 C55.51290535 32.62638649 63.43843926 37.50740842 71.32836914 42.45043945 C82.04187119 49.16182465 92.84133079 55.7299594 103.64355469 62.29711914 C112.32711418 67.58085142 120.9851291 72.90553928 129.6394043 78.23706055 C135.92000811 82.1058522 142.20452756 85.96794735 148.5 89.8125 C149.21051514 90.24643066 149.92103027 90.68036133 150.65307617 91.12744141 C154.28063338 93.34198468 157.90958697 95.55422747 161.5390625 97.765625 C169.49431499 102.61574917 177.42567213 107.50018558 185.32177734 112.44604492 C195.05245122 118.5407234 204.84532297 124.5248619 214.6875 130.4375 C215.57405273 130.97036621 216.46060547 131.50323242 217.37402344 132.05224609 C218.20321289 132.54934082 219.03240234 133.04643555 219.88671875 133.55859375 C220.63139404 134.00517334 221.37606934 134.45175293 222.14331055 134.91186523 C223.40456841 135.65104029 224.69243703 136.34621852 226 137 C226 223.13 226 309.26 226 398 C222.04 399.98 222.04 399.98 218 402 C216.32347419 402.91019331 214.6543279 403.83423708 212.99609375 404.77734375 C212.10220947 405.28426758 211.2083252 405.79119141 210.28735352 406.31347656 C209.34690186 406.8494043 208.4064502 407.38533203 207.4375 407.9375 C205.39325723 409.0977057 203.34898555 410.25786047 201.3046875 411.41796875 C200.26280273 412.01013184 199.22091797 412.60229492 198.14746094 413.21240234 C193.12340347 416.06581134 188.09291448 418.90781792 183.0625 421.75 C182.09691162 422.2958374 181.13132324 422.8416748 180.13647461 423.40405273 C174.7611131 426.4422205 169.3828682 429.47515414 164 432.5 C150.06751812 440.33005116 136.1503968 448.18716862 122.28125 456.12890625 C118.0563784 458.53808898 113.81719978 460.92127568 109.57666016 463.30273438 C103.69135013 466.60862011 97.81355751 469.92769919 91.9375 473.25 C90.96748047 473.79841553 89.99746094 474.34683105 88.99804688 474.91186523 C85.99862418 476.60777979 82.99929531 478.30386017 80 480 C57.64626167 492.64132469 57.64626167 492.64132469 49 497.5 C43.46496857 500.61068621 37.93370988 503.72800344 32.40551758 506.85083008 C30.40070641 507.98316965 28.39534355 509.11453308 26.3894043 510.24487305 C22.09359985 512.66874664 17.80552667 515.10067138 13.55859375 517.609375 C12.91422363 517.98763428 12.26985352 518.36589355 11.60595703 518.75561523 C9.94810348 519.73258883 8.29604624 520.71938048 6.64453125 521.70703125 C4 523 4 523 0 523 C0 484.72 0 446.44 0 407 C3.88277083 405.8906369 7.74164092 404.79113245 11.64453125 403.7734375 C35.54125588 397.37847423 58.51840243 387.04456427 76 369 C81 364 81 364 82.57885742 362.49145508 C86.8807228 358.32683765 90.51094197 353.96682199 93.9375 349.0625 C94.45401123 348.32378662 94.97052246 347.58507324 95.50268555 346.82397461 C100.46777706 339.56230596 104.47270157 332.04820206 108 324 C108.30776367 323.30326172 108.61552734 322.60652344 108.93261719 321.88867188 C115.74801065 306.17837095 120.73974938 289.21371977 121 272 C121.02852051 270.75911621 121.02852051 270.75911621 121.05761719 269.49316406 C121.83907746 232.79015293 113.80445319 198.21986843 89 170 C88.30261719 169.15824219 87.60523438 168.31648437 86.88671875 167.44921875 C65.40156975 142.19336718 31.85789505 129.30964917 0 124 C0 83.08 0 42.16 0 0 Z " fill="#86817E" transform="translate(437,433)"/>
<path d="M0 0 C0 40.92 0 81.84 0 124 C-5.94 125.32 -11.88 126.64 -18 128 C-38.90257608 134.08358557 -58.51412065 142.02868061 -75.0625 156.5 C-78 159 -78 159 -80 159 C-80.33 159.99 -80.66 160.98 -81 162 C-82.10821128 163.14284288 -83.22301442 164.27976334 -84.36328125 165.390625 C-108.78427635 189.40363211 -120.64490852 222.88028371 -121.28320312 256.6784668 C-121.59125152 293.57496299 -111.36743613 332.24781436 -85.1796875 359.58203125 C-84 361 -84 361 -84 363 C-83.443125 363.226875 -82.88625 363.45375 -82.3125 363.6875 C-79.33840412 365.37550036 -77.27991135 367.46676517 -75 370 C-75 370.66 -75 371.32 -75 372 C-74.43152344 372.25523437 -73.86304688 372.51046875 -73.27734375 372.7734375 C-70.73797243 374.14112634 -68.76353581 375.76172854 -66.5625 377.625 C-48.22417022 392.43467158 -26.54901425 400.97132982 -3.59765625 405.421875 C-1 406 -1 406 0 407 C0.09575309 408.50551174 0.12188187 410.0155103 0.12025452 411.52406311 C0.12231651 412.99018791 0.12231651 412.99018791 0.12442017 414.4859314 C0.12082489 415.56702179 0.11722961 416.64811218 0.11352539 417.76196289 C0.11367142 418.8935231 0.11381744 420.02508331 0.1139679 421.19093323 C0.11326819 424.95152671 0.10547311 428.71207137 0.09765625 432.47265625 C0.09579227 435.07197543 0.09436828 437.67129497 0.09336853 440.27061462 C0.08993341 446.42588577 0.08204256 452.5811366 0.07201904 458.73640007 C0.06085694 465.74233346 0.05534721 472.74826767 0.05032361 479.75420773 C0.03985992 494.16948133 0.02226108 508.58474004 0 523 C-4.22086204 522.37068418 -7.09264789 521.63786274 -10.6875 519.3125 C-14.09662716 517.17294393 -17.51107271 515.14445437 -21.0625 513.25 C-25.93453676 510.62765727 -30.68516363 507.83064377 -35.4375 505 C-41.17884814 501.58629378 -46.94570563 498.391943 -52.99609375 495.546875 C-56.51513179 493.73473057 -59.86068279 491.69669654 -63.24487305 489.64599609 C-68.0000684 486.8050987 -72.84728519 484.13007997 -77.6875 481.4375 C-79.89992397 480.20215308 -82.11215928 478.96646824 -84.32421875 477.73046875 C-85.99170166 476.79920166 -85.99170166 476.79920166 -87.69287109 475.84912109 C-100.31621075 468.79100988 -112.90809113 461.68930299 -125.35131836 454.31762695 C-129.9088826 451.62328425 -134.51310665 449.04031256 -139.17578125 446.53125 C-142.55290907 444.70022081 -145.90310713 442.8229913 -149.25 440.9375 C-149.91789551 440.56125488 -150.58579102 440.18500977 -151.27392578 439.79736328 C-155.27186705 437.54294049 -159.26702247 435.28360412 -163.26171875 433.0234375 C-173.39432124 427.29062242 -183.53242537 421.56793658 -193.6875 415.875 C-194.62263428 415.35010986 -195.55776855 414.82521973 -196.52124023 414.28442383 C-206.31667734 408.79874537 -216.16177357 403.41102454 -226 398 C-226 311.87 -226 225.74 -226 137 C-221.38 134.36 -216.76 131.72 -212 129 C-208.27286736 126.72644909 -204.55351973 124.44617221 -200.84570312 122.14208984 C-197.24070285 119.91137671 -193.61892716 117.70801801 -190 115.5 C-182.65677838 111.01592968 -175.32484451 106.51404014 -168 102 C-165.83342329 100.6665205 -163.66675554 99.3331889 -161.5 98 C-160.41332031 97.33097656 -159.32664062 96.66195312 -158.20703125 95.97265625 C-156.18468009 94.72870091 -154.16137256 93.48629779 -152.13671875 92.24609375 C-146.92416365 89.04952023 -141.72630046 85.83198815 -136.546875 82.58203125 C-125.23170683 75.4831475 -113.87385674 68.4761834 -102.40234375 61.6328125 C-97.68190009 58.81604957 -92.99941069 55.94209714 -88.32421875 53.05078125 C-85.05720082 51.0352884 -81.78145256 49.03475992 -78.50366211 47.03686523 C-71.91554732 43.02094156 -65.34638104 38.97862047 -58.8125 34.875 C-53.133253 31.30878238 -47.40851922 27.82965266 -41.64819336 24.39624023 C-35.67209118 20.82470498 -29.7755521 17.13041112 -23.87890625 13.4296875 C-18.27637061 9.91464517 -12.64450699 6.44720949 -7 3 C-6.09636719 2.43152344 -5.19273437 1.86304688 -4.26171875 1.27734375 C-2 0 -2 0 0 0 Z " fill="#0963A1" transform="translate(402,433)"/>
<path d="M0 0 C3.05571315 1.23895279 5.87124612 2.8350619 8.7109375 4.49609375 C9.33009033 4.85364746 9.94924316 5.21120117 10.5871582 5.57958984 C15.31633182 8.3315295 19.91937249 11.25842859 24.515625 14.2265625 C28.01315646 16.41122236 31.61718229 18.35599117 35.25 20.3046875 C40.94533749 23.38262596 46.54392275 26.63173213 52.1484375 29.87109375 C53.07011719 30.4036377 53.99179687 30.93618164 54.94140625 31.48486328 C58.07483532 33.2978188 61.20571867 35.11510169 64.3359375 36.93359375 C65.33326904 37.51109375 66.33060059 38.08859375 67.3581543 38.68359375 C73.20831784 42.09027477 78.95855681 45.61317226 84.63867188 49.296875 C88.09133799 51.46251616 91.65983662 53.37887157 95.25 55.3046875 C108.01390571 62.20270123 120.46258034 69.70586531 132.98730469 77.02441406 C138.03953729 79.97584188 143.0940504 82.92335762 148.1484375 85.87109375 C154.20765463 89.40518304 160.26655133 92.93981741 166.32421875 96.4765625 C168.36977536 97.67060085 170.41534814 98.8646115 172.4609375 100.05859375 C173.45585205 100.63947754 174.4507666 101.22036133 175.47583008 101.81884766 C180.11854351 104.52770313 184.76461057 107.2302897 189.421875 109.9140625 C197.43744512 114.53309841 205.38227561 119.2190531 213.23828125 124.10546875 C216.02537863 125.79643253 218.84345099 127.38360104 221.7109375 128.93359375 C222.53505127 129.39958984 223.35916504 129.86558594 224.20825195 130.34570312 C227.1171946 131.94350765 227.1171946 131.94350765 230.27587891 132.96191406 C234.03650861 134.50798299 236.36066635 135.88486655 239.1484375 138.87109375 C241.33859017 145.37589858 240.28635928 152.82551727 239.9609375 159.55859375 C239.90212073 161.70500346 239.84947633 163.85158974 239.80249023 165.99829102 C239.69182418 170.71307394 239.54822234 175.42543308 239.38476562 180.13867188 C239.11451549 188.34574183 239.003397 196.55113391 238.9140625 204.76171875 C238.88124914 207.67651625 238.84809076 210.59130982 238.81494141 213.50610352 C238.80677965 214.23176797 238.7986179 214.95743242 238.79020882 215.70508671 C238.47592469 243.09747253 237.89732429 270.48736183 237.1484375 297.87109375 C233.60594922 297.20124331 230.9530714 295.74642508 227.859375 293.921875 C226.83457031 293.32052734 225.80976562 292.71917969 224.75390625 292.09960938 C223.68785156 291.46732422 222.62179687 290.83503906 221.5234375 290.18359375 C220.48058594 289.57064453 219.43773437 288.95769531 218.36328125 288.32617188 C213.5876978 285.51507625 208.82614531 282.68159695 204.078125 279.82421875 C198.71522785 276.59993642 193.30839001 273.45308398 187.8984375 270.30859375 C179.96545328 265.69000838 172.04650227 261.04913958 164.1484375 256.37109375 C156.39454964 251.7792648 148.62233209 247.2200843 140.8359375 242.68359375 C129.20427649 235.90620646 117.5871149 229.10628789 106.015625 222.2265625 C103.74753554 220.87867028 101.47936025 219.53092477 99.2109375 218.18359375 C98.63898651 217.84385529 98.06703552 217.50411682 97.47775269 217.15408325 C87.72950533 211.36724236 77.92496892 205.68468463 68.09619141 200.03564453 C61.22895304 196.08452951 54.40846427 192.0679503 47.62890625 187.96875 C38.55626738 182.48568654 29.38918129 177.15810275 20.20605469 171.86279297 C11.9644381 167.11036511 3.78359731 162.26861868 -4.36376953 157.35644531 C-11.61202179 152.99479011 -18.92580795 148.75297977 -26.25390625 144.52734375 C-36.58186827 138.56965788 -46.83735075 132.49186111 -57.04785156 126.33544922 C-62.92507176 122.80386682 -68.86399792 119.38149456 -74.80419922 115.95727539 C-79.68183494 113.14091024 -84.53112632 110.28417723 -89.3515625 107.37109375 C-94.94048778 103.99486171 -100.57208132 100.6987934 -106.2265625 97.43359375 C-107.01861084 96.97460693 -107.81065918 96.51562012 -108.62670898 96.04272461 C-112.66320916 93.70489602 -116.70817009 91.3842333 -120.76953125 89.08984375 C-122.31780293 88.20459251 -123.8659838 87.31918241 -125.4140625 86.43359375 C-126.1344873 86.03277588 -126.85491211 85.63195801 -127.59716797 85.21899414 C-133.64540725 81.73607298 -133.64540725 81.73607298 -134.8515625 77.87109375 C-124.19335938 71.6015625 -124.19335938 71.6015625 -113.53515625 65.33203125 C-112.84405762 64.92549316 -112.15295898 64.51895508 -111.44091797 64.10009766 C-110.0324227 63.27159039 -108.62389332 62.44314111 -107.21533203 61.61474609 C-103.7586558 59.58173173 -100.30249121 57.54786075 -96.84765625 55.51171875 C-90.62250316 51.84436211 -84.3937026 48.18382417 -78.1484375 44.55078125 C-76.111943 43.36594757 -74.07548534 42.18105059 -72.0390625 40.99609375 C-71.02166992 40.4040918 -70.00427734 39.81208984 -68.95605469 39.20214844 C-62.28419121 35.31181813 -55.65061445 31.36292672 -49.0390625 27.37109375 C-43.32054525 23.91978604 -37.58284083 20.56872321 -31.6875 17.42578125 C-27.84218581 15.31774399 -24.06715557 13.0968425 -20.2890625 10.87109375 C-19.55574707 10.44062744 -18.82243164 10.01016113 -18.06689453 9.56665039 C-13.2515367 6.72959032 -8.50460707 3.80256196 -3.83203125 0.734375 C-1.8515625 -0.12890625 -1.8515625 -0.12890625 0 0 Z " fill="#86817E" transform="translate(594.8515625,102.12890625)"/>
<path d="M0 0 C0 142.23 0 284.46 0 431 C-3.0827217 429.76691132 -5.7055217 428.70605138 -8.53125 427.1171875 C-9.17030273 426.75858643 -9.80935547 426.39998535 -10.46777344 426.03051758 C-11.1384082 425.64919678 -11.80904297 425.26787598 -12.5 424.875 C-13.20415039 424.47756592 -13.90830078 424.08013184 -14.63378906 423.6706543 C-19.07181338 421.1485942 -23.42504947 418.52342913 -27.75 415.8125 C-31.63355178 413.39121466 -35.50742114 411.18355623 -39.625 409.1875 C-45.62309853 406.27056291 -51.33964757 402.95948633 -57.09179688 399.59277344 C-63.88927372 395.62183899 -70.74734773 391.76763815 -77.625 387.9375 C-85.24236813 383.69142642 -92.80805676 379.38245078 -100.29785156 374.91577148 C-108.43089667 370.09921896 -116.72441808 365.56314475 -125.00146484 361.00024414 C-126.12246582 360.38141357 -127.2434668 359.76258301 -128.3984375 359.125 C-129.40567871 358.57070313 -130.41291992 358.01640625 -131.45068359 357.4453125 C-133.34474591 356.37149054 -135.1883902 355.20773987 -137 354 C-137.37259549 351.95623481 -137.37259549 351.95623481 -137.36914349 349.38104057 C-137.37511663 348.40170771 -137.38108978 347.42237486 -137.38724393 346.41336524 C-137.3785054 345.3297254 -137.36976688 344.24608557 -137.36076355 343.12960815 C-137.36332682 341.98450464 -137.3658901 340.83940113 -137.36853105 339.65959752 C-137.37263094 336.47154049 -137.36320689 333.28384576 -137.34819686 330.09583163 C-137.33527929 326.66161507 -137.33962292 323.22741638 -137.34190369 319.79318237 C-137.34347914 313.83997436 -137.33404161 307.88686475 -137.31719017 301.93368149 C-137.29284148 293.32632265 -137.28499915 284.71901154 -137.2812262 276.11162199 C-137.27465521 262.14779261 -137.25467652 248.18401571 -137.22631836 234.22021484 C-137.19879452 220.65316023 -137.17755275 207.08611985 -137.16479492 193.51904297 C-137.16400675 192.68320965 -137.16321858 191.84737634 -137.16240653 190.98621474 C-137.1584915 186.79321615 -137.15470036 182.60021746 -137.15097082 178.40721869 C-137.11985476 143.60477504 -137.06700138 108.80239236 -137 74 C-135.99487869 73.45789131 -135.99487869 73.45789131 -134.9694519 72.90483093 C-131.87217899 71.23339232 -128.77593017 69.56006499 -125.6796875 67.88671875 C-124.09933716 67.03442688 -124.09933716 67.03442688 -122.48706055 66.16491699 C-113.89546065 61.51897879 -105.40989976 56.70433802 -96.9453125 51.83203125 C-92.32200008 49.17511017 -87.66774391 46.57787118 -83 44 C-75.77956696 40.01015904 -68.61577521 35.92774737 -61.46240234 31.8190918 C-54.0566148 27.57749735 -46.59478699 23.43984759 -39.125 19.3125 C-31.78470968 15.25575391 -24.47619961 11.17475805 -17.3125 6.8125 C-3.93566924 -1.31188975 -3.93566924 -1.31188975 0 0 Z " fill="#86817E" transform="translate(137,371)"/>
<path d="M0 0 C4.94387209 0.69976259 7.98442792 1.94636604 12.1875 4.6875 C17.99463438 8.39899471 23.91434237 11.76806883 30 15 C41.09086145 20.89006201 52.01139854 27.06405374 62.93310547 33.26074219 C67.93173916 36.09550309 72.93462964 38.9227249 77.9375 41.75 C78.90349121 42.2960791 79.86948242 42.8421582 80.86474609 43.40478516 C86.2397295 46.44265911 91.61765621 49.47518861 97 52.5 C98.91544672 53.57732803 100.83079446 54.65483177 102.74609375 55.73242188 C104.42551135 56.67691236 106.10525037 57.62083138 107.78515625 58.56445312 C110.85782803 60.29109643 113.92900285 62.02038024 117 63.75 C117.96808594 64.29333984 118.93617188 64.83667969 119.93359375 65.39648438 C121.32771484 66.18249023 121.32771484 66.18249023 122.75 66.984375 C123.56984375 67.44553711 124.3896875 67.90669922 125.234375 68.38183594 C126.14703125 68.91583008 127.0596875 69.44982422 128 70 C128.65445058 70.2838514 129.30890115 70.5677028 129.98318356 70.86015576 C132.36083499 72.029653 134.11308195 73.12986744 136 75 C137.2158351 78.68980351 137.10178516 82.28094362 137.04951477 86.13935852 C137.06552252 87.27729723 137.08153028 88.41523593 137.09802312 89.58765763 C137.14172443 93.40982978 137.12805662 97.22963509 137.11450195 101.05200195 C137.12915379 103.78856795 137.15562602 106.52499306 137.18132019 109.26147461 C137.23618789 115.92852865 137.24704973 122.59495793 137.24114416 129.26220886 C137.23674592 134.68210081 137.24610309 140.10179916 137.26521873 145.52165794 C137.27062182 147.08286338 137.276023 148.64406883 137.28142232 150.20527428 C137.28411262 150.98233903 137.28680293 151.75940378 137.28957476 152.56001594 C137.33826082 167.25775089 137.3339907 181.95512786 137.31425127 196.6529059 C137.29793482 210.09485848 137.35081974 223.53550561 137.43607042 236.97716401 C137.5229442 250.78170759 137.56151282 264.5856278 137.54851311 278.39044923 C137.54211293 286.13987882 137.55506028 293.88812514 137.61901283 301.63732338 C137.67298565 308.23578613 137.68151797 314.83239948 137.63162348 321.43092672 C137.60742184 324.7979345 137.61102103 328.15870693 137.65733719 331.52590752 C137.90965187 351.24343651 137.90965187 351.24343651 134.73056006 355.83242393 C131.29729087 359.05706292 127.43347197 360.48216215 123 362 C121.26622883 362.99875411 119.55162117 364.03302304 117.875 365.125 C114.62583222 367.06736677 111.34427794 368.92401768 108.015625 370.7265625 C101.61838643 374.20381089 95.24286251 377.71926795 88.875 381.25 C88.28628113 381.57637451 87.69756226 381.90274902 87.09100342 382.23901367 C79.19164758 386.6222303 71.35225839 391.09057414 63.58959961 395.71166992 C58.56778154 398.69311936 53.46284436 401.48669364 48.3046875 404.2265625 C39.40324537 409.00345934 30.64594438 414.05106249 21.875 419.0625 C20.75351562 419.70316406 19.63203125 420.34382813 18.4765625 421.00390625 C16.00701521 422.41820623 13.54513848 423.84513519 11.0859375 425.27734375 C10.12324951 425.8350647 10.12324951 425.8350647 9.14111328 426.40405273 C7.90563656 427.12004228 6.67214036 427.83946329 5.44091797 428.56274414 C1.22502442 431 1.22502442 431 -1 431 C-1.0229894 382.73627831 -1.04056031 334.4725572 -1.05106533 286.20883109 C-1.05231574 280.48492385 -1.05361009 274.76101661 -1.05493164 269.03710938 C-1.05519395 267.89778897 -1.05545626 266.75846856 -1.05572652 265.58462329 C-1.06005414 247.24106268 -1.06792535 228.89750527 -1.0771528 210.55394654 C-1.08657082 191.67121739 -1.09207268 172.7884899 -1.09408849 153.9057585 C-1.0953264 143.32517361 -1.09827863 132.7445954 -1.10573006 122.16401291 C-1.16450945 36.32209713 -1.16450945 36.32209713 0 0 Z " fill="#0963A1" transform="translate(699,364)"/>
</svg>
